<mxfile host="Electron" agent="Mozilla/5.0 (Windows NT 10.0; Win64; x64) AppleWebKit/537.36 (KHTML, like Gecko) draw.io/28.2.5 Chrome/138.0.7204.251 Electron/37.6.1 Safari/537.36" version="28.2.5">
  <diagram name="Page-1" id="k7P5zP-qQ__8qEdagqi8">
    <mxGraphModel dx="689" dy="400" grid="1" gridSize="10" guides="1" tooltips="1" connect="1" arrows="1" fold="1" page="1" pageScale="1" pageWidth="850" pageHeight="1100" math="0" shadow="0">
      <root>
        <mxCell id="0" />
        <mxCell id="1" parent="0" />
        <mxCell id="bQCTUwX9uYaT31wB2rOD-1" value="" style="rounded=0;whiteSpace=wrap;html=1;dashed=1;fillColor=none;fontColor=#ffffff;strokeColor=#EA6B66;fillStyle=auto;gradientColor=none;" parent="1" vertex="1">
          <mxGeometry x="170" y="365" width="140" height="475" as="geometry" />
        </mxCell>
        <mxCell id="bQCTUwX9uYaT31wB2rOD-2" value="Bronze" style="rounded=1;whiteSpace=wrap;html=1;strokeColor=#EA6B66;" parent="1" vertex="1">
          <mxGeometry x="190" y="360" width="100" height="20" as="geometry" />
        </mxCell>
        <mxCell id="bQCTUwX9uYaT31wB2rOD-3" value="" style="rounded=0;whiteSpace=wrap;html=1;dashed=1;fillColor=none;fontColor=#ffffff;strokeColor=#D4E1F5;fillStyle=auto;" parent="1" vertex="1">
          <mxGeometry x="350" y="360" width="140" height="480" as="geometry" />
        </mxCell>
        <mxCell id="bQCTUwX9uYaT31wB2rOD-4" value="Silver" style="rounded=1;whiteSpace=wrap;html=1;strokeColor=#D4E1F5;" parent="1" vertex="1">
          <mxGeometry x="370" y="350" width="100" height="20" as="geometry" />
        </mxCell>
        <mxCell id="bQCTUwX9uYaT31wB2rOD-5" value="" style="rounded=0;whiteSpace=wrap;html=1;dashed=1;fillColor=none;fontColor=#ffffff;strokeColor=#FFD966;fillStyle=auto;gradientColor=none;" parent="1" vertex="1">
          <mxGeometry x="530" y="360" width="140" height="480" as="geometry" />
        </mxCell>
        <mxCell id="bQCTUwX9uYaT31wB2rOD-6" value="Gold" style="rounded=1;whiteSpace=wrap;html=1;strokeColor=#FFD966;" parent="1" vertex="1">
          <mxGeometry x="550" y="350" width="100" height="20" as="geometry" />
        </mxCell>
        <mxCell id="bQCTUwX9uYaT31wB2rOD-7" value="" style="endArrow=classic;html=1;rounded=0;entryX=0.007;entryY=0.509;entryDx=0;entryDy=0;entryPerimeter=0;" parent="1" edge="1">
          <mxGeometry width="50" height="50" relative="1" as="geometry">
            <mxPoint x="310" y="571" as="sourcePoint" />
            <mxPoint x="350.84000000000015" y="571.4699999999998" as="targetPoint" />
          </mxGeometry>
        </mxCell>
        <mxCell id="FZtYvgmV2bGIrAXsWXde-1" value="Definition" style="rounded=1;whiteSpace=wrap;html=1;" vertex="1" parent="1">
          <mxGeometry x="40" y="410" width="90" height="30" as="geometry" />
        </mxCell>
        <mxCell id="FZtYvgmV2bGIrAXsWXde-2" value="Objective" style="rounded=1;whiteSpace=wrap;html=1;" vertex="1" parent="1">
          <mxGeometry x="40" y="460" width="90" height="30" as="geometry" />
        </mxCell>
        <mxCell id="FZtYvgmV2bGIrAXsWXde-3" value="" style="endArrow=classic;html=1;rounded=0;entryX=0.007;entryY=0.509;entryDx=0;entryDy=0;entryPerimeter=0;" edge="1" parent="1">
          <mxGeometry width="50" height="50" relative="1" as="geometry">
            <mxPoint x="490" y="572" as="sourcePoint" />
            <mxPoint x="531" y="571.5" as="targetPoint" />
          </mxGeometry>
        </mxCell>
        <mxCell id="FZtYvgmV2bGIrAXsWXde-5" value="&lt;p&gt;&lt;font style=&quot;font-size: 8px;&quot;&gt;Raw, Unprocessed Data&amp;nbsp;&lt;/font&gt;&lt;/p&gt;" style="rounded=1;whiteSpace=wrap;html=1;autosize=0;" vertex="1" parent="1">
          <mxGeometry x="185" y="410" width="115" height="30" as="geometry" />
        </mxCell>
        <mxCell id="FZtYvgmV2bGIrAXsWXde-6" value="&lt;p&gt;&lt;font style=&quot;font-size: 8px; line-height: 0%;&quot;&gt;Traceability, Debugging &amp;amp; Backup&lt;/font&gt;&lt;/p&gt;" style="rounded=1;whiteSpace=wrap;html=1;autosize=0;" vertex="1" parent="1">
          <mxGeometry x="185" y="460" width="115" height="30" as="geometry" />
        </mxCell>
        <mxCell id="FZtYvgmV2bGIrAXsWXde-7" value="&lt;p&gt;&lt;font style=&quot;font-size: 8px;&quot;&gt;Clean &amp;amp; Standardized Data&lt;/font&gt;&lt;/p&gt;" style="rounded=1;whiteSpace=wrap;html=1;autosize=0;" vertex="1" parent="1">
          <mxGeometry x="365" y="410" width="115" height="30" as="geometry" />
        </mxCell>
        <mxCell id="FZtYvgmV2bGIrAXsWXde-8" value="&lt;p&gt;&lt;font style=&quot;font-size: 8px;&quot;&gt;Prepare Data for Analysis&lt;/font&gt;&lt;/p&gt;" style="rounded=1;whiteSpace=wrap;html=1;autosize=0;" vertex="1" parent="1">
          <mxGeometry x="365" y="460" width="115" height="30" as="geometry" />
        </mxCell>
        <mxCell id="FZtYvgmV2bGIrAXsWXde-9" value="&lt;p&gt;&lt;font style=&quot;font-size: 8px;&quot;&gt;Business-Ready Data&lt;/font&gt;&lt;/p&gt;" style="rounded=1;whiteSpace=wrap;html=1;autosize=0;" vertex="1" parent="1">
          <mxGeometry x="545" y="410" width="115" height="30" as="geometry" />
        </mxCell>
        <mxCell id="FZtYvgmV2bGIrAXsWXde-10" value="&lt;p&gt;&lt;font style=&quot;font-size: 8px; line-height: 90%;&quot;&gt;Provide Data to be Consumed for Reporting &amp;amp; Analytics&lt;/font&gt;&lt;/p&gt;" style="rounded=1;whiteSpace=wrap;html=1;autosize=0;" vertex="1" parent="1">
          <mxGeometry x="545" y="460" width="115" height="30" as="geometry" />
        </mxCell>
        <mxCell id="FZtYvgmV2bGIrAXsWXde-11" value="Object Type" style="rounded=1;whiteSpace=wrap;html=1;" vertex="1" parent="1">
          <mxGeometry x="40" y="515" width="90" height="30" as="geometry" />
        </mxCell>
        <mxCell id="FZtYvgmV2bGIrAXsWXde-12" value="&lt;p&gt;&lt;font style=&quot;font-size: 8px;&quot;&gt;Tables&lt;/font&gt;&lt;/p&gt;" style="rounded=1;whiteSpace=wrap;html=1;autosize=0;" vertex="1" parent="1">
          <mxGeometry x="185" y="515" width="115" height="30" as="geometry" />
        </mxCell>
        <mxCell id="FZtYvgmV2bGIrAXsWXde-13" value="&lt;p&gt;&lt;font style=&quot;font-size: 8px;&quot;&gt;Tables&lt;/font&gt;&lt;/p&gt;" style="rounded=1;whiteSpace=wrap;html=1;autosize=0;" vertex="1" parent="1">
          <mxGeometry x="365" y="515" width="115" height="30" as="geometry" />
        </mxCell>
        <mxCell id="FZtYvgmV2bGIrAXsWXde-14" value="&lt;p&gt;&lt;font style=&quot;font-size: 8px;&quot;&gt;Views&lt;/font&gt;&lt;/p&gt;" style="rounded=1;whiteSpace=wrap;html=1;autosize=0;" vertex="1" parent="1">
          <mxGeometry x="542.5" y="515" width="115" height="30" as="geometry" />
        </mxCell>
        <mxCell id="FZtYvgmV2bGIrAXsWXde-15" value="Load Method" style="rounded=1;whiteSpace=wrap;html=1;" vertex="1" parent="1">
          <mxGeometry x="40" y="570" width="90" height="30" as="geometry" />
        </mxCell>
        <mxCell id="FZtYvgmV2bGIrAXsWXde-16" value="&lt;div style=&quot;line-height: 0%;&quot;&gt;&lt;p&gt;&lt;font style=&quot;font-size: 8px;&quot;&gt;Full Load&lt;/font&gt;&lt;/p&gt;&lt;p&gt;&lt;font style=&quot;font-size: 8px;&quot;&gt;(Truncate &amp;amp; Insert)&lt;/font&gt;&lt;/p&gt;&lt;/div&gt;" style="rounded=1;whiteSpace=wrap;html=1;autosize=0;" vertex="1" parent="1">
          <mxGeometry x="185" y="570" width="115" height="30" as="geometry" />
        </mxCell>
        <mxCell id="FZtYvgmV2bGIrAXsWXde-17" value="&lt;div style=&quot;line-height: 0%;&quot;&gt;&lt;p&gt;&lt;font style=&quot;font-size: 8px;&quot;&gt;Full Load&lt;/font&gt;&lt;/p&gt;&lt;p&gt;&lt;font style=&quot;font-size: 8px;&quot;&gt;(Truncate &amp;amp; Insert)&lt;/font&gt;&lt;/p&gt;&lt;/div&gt;" style="rounded=1;whiteSpace=wrap;html=1;autosize=0;" vertex="1" parent="1">
          <mxGeometry x="365" y="570" width="115" height="30" as="geometry" />
        </mxCell>
        <mxCell id="FZtYvgmV2bGIrAXsWXde-18" value="&lt;div style=&quot;line-height: 0%;&quot;&gt;&lt;p&gt;&lt;span style=&quot;font-size: 8px;&quot;&gt;None&lt;/span&gt;&lt;/p&gt;&lt;/div&gt;" style="rounded=1;whiteSpace=wrap;html=1;autosize=0;" vertex="1" parent="1">
          <mxGeometry x="542.5" y="570" width="115" height="30" as="geometry" />
        </mxCell>
        <mxCell id="FZtYvgmV2bGIrAXsWXde-19" value="Data Transformations" style="rounded=1;whiteSpace=wrap;html=1;" vertex="1" parent="1">
          <mxGeometry x="40" y="630" width="90" height="70" as="geometry" />
        </mxCell>
        <mxCell id="FZtYvgmV2bGIrAXsWXde-20" value="&lt;div style=&quot;line-height: 0%;&quot;&gt;&lt;p&gt;&lt;span style=&quot;font-size: 8px;&quot;&gt;None&lt;/span&gt;&lt;/p&gt;&lt;/div&gt;" style="rounded=1;whiteSpace=wrap;html=1;autosize=0;" vertex="1" parent="1">
          <mxGeometry x="182.5" y="630" width="115" height="70" as="geometry" />
        </mxCell>
        <mxCell id="FZtYvgmV2bGIrAXsWXde-21" value="&lt;div style=&quot;line-height: 0%;&quot;&gt;&lt;p&gt;&lt;span style=&quot;font-size: 8px;&quot;&gt;- Data Cleaning&lt;/span&gt;&lt;/p&gt;&lt;p&gt;&lt;span style=&quot;font-size: 8px;&quot;&gt;- Data Standardization&lt;/span&gt;&lt;/p&gt;&lt;p&gt;&lt;span style=&quot;font-size: 8px;&quot;&gt;- Data Normalization&lt;/span&gt;&lt;/p&gt;&lt;p&gt;&lt;span style=&quot;font-size: 8px;&quot;&gt;- Derived Columns&lt;/span&gt;&lt;/p&gt;&lt;p&gt;&lt;span style=&quot;font-size: 8px;&quot;&gt;- Data Enrichment&lt;/span&gt;&lt;/p&gt;&lt;/div&gt;" style="rounded=1;whiteSpace=wrap;html=1;autosize=0;align=left;" vertex="1" parent="1">
          <mxGeometry x="365" y="630" width="115" height="70" as="geometry" />
        </mxCell>
        <mxCell id="FZtYvgmV2bGIrAXsWXde-22" value="&lt;div style=&quot;line-height: 0%;&quot;&gt;&lt;p&gt;&lt;span style=&quot;font-size: 8px;&quot;&gt;- Data Integration&lt;/span&gt;&lt;/p&gt;&lt;p&gt;&lt;span style=&quot;font-size: 8px;&quot;&gt;- Data Aggregation&lt;/span&gt;&lt;/p&gt;&lt;p&gt;&lt;span style=&quot;font-size: 8px;&quot;&gt;- Business Logic &amp;amp; Rules&lt;/span&gt;&lt;/p&gt;&lt;/div&gt;" style="rounded=1;whiteSpace=wrap;html=1;autosize=0;align=left;" vertex="1" parent="1">
          <mxGeometry x="542.5" y="630" width="115" height="70" as="geometry" />
        </mxCell>
        <mxCell id="FZtYvgmV2bGIrAXsWXde-23" value="Data Modelling" style="rounded=1;whiteSpace=wrap;html=1;" vertex="1" parent="1">
          <mxGeometry x="40" y="730" width="90" height="40" as="geometry" />
        </mxCell>
        <mxCell id="FZtYvgmV2bGIrAXsWXde-24" value="&lt;div style=&quot;line-height: 0%;&quot;&gt;&lt;p&gt;&lt;span style=&quot;font-size: 8px;&quot;&gt;None&lt;/span&gt;&lt;/p&gt;&lt;/div&gt;" style="rounded=1;whiteSpace=wrap;html=1;autosize=0;" vertex="1" parent="1">
          <mxGeometry x="182.5" y="730" width="115" height="40" as="geometry" />
        </mxCell>
        <mxCell id="FZtYvgmV2bGIrAXsWXde-25" value="Access" style="rounded=1;whiteSpace=wrap;html=1;" vertex="1" parent="1">
          <mxGeometry x="40" y="790" width="90" height="30" as="geometry" />
        </mxCell>
        <mxCell id="FZtYvgmV2bGIrAXsWXde-26" value="&lt;div style=&quot;line-height: 0%;&quot;&gt;&lt;p&gt;&lt;span style=&quot;font-size: 8px;&quot;&gt;Data Engineers&lt;/span&gt;&lt;/p&gt;&lt;/div&gt;" style="rounded=1;whiteSpace=wrap;html=1;autosize=0;" vertex="1" parent="1">
          <mxGeometry x="182.5" y="790" width="115" height="30" as="geometry" />
        </mxCell>
        <mxCell id="FZtYvgmV2bGIrAXsWXde-27" value="&lt;div style=&quot;line-height: 0%;&quot;&gt;&lt;p&gt;&lt;span style=&quot;font-size: 8px;&quot;&gt;None&lt;/span&gt;&lt;/p&gt;&lt;/div&gt;" style="rounded=1;whiteSpace=wrap;html=1;autosize=0;" vertex="1" parent="1">
          <mxGeometry x="365" y="730" width="115" height="40" as="geometry" />
        </mxCell>
        <mxCell id="FZtYvgmV2bGIrAXsWXde-28" value="&lt;div style=&quot;line-height: 0%;&quot;&gt;&lt;p&gt;&lt;span style=&quot;font-size: 8px;&quot;&gt;- Star Schema&lt;/span&gt;&lt;/p&gt;&lt;p&gt;&lt;span style=&quot;font-size: 8px;&quot;&gt;- Aggregated Objects&lt;/span&gt;&lt;/p&gt;&lt;p&gt;&lt;span style=&quot;font-size: 8px;&quot;&gt;- Flat Tables&lt;/span&gt;&lt;/p&gt;&lt;/div&gt;" style="rounded=1;whiteSpace=wrap;html=1;autosize=0;align=left;" vertex="1" parent="1">
          <mxGeometry x="542.5" y="730" width="115" height="40" as="geometry" />
        </mxCell>
        <mxCell id="FZtYvgmV2bGIrAXsWXde-29" value="&lt;div style=&quot;line-height: 0%;&quot;&gt;&lt;p&gt;&lt;span style=&quot;font-size: 8px;&quot;&gt;Data Analysts&lt;/span&gt;&lt;/p&gt;&lt;p&gt;&lt;span style=&quot;font-size: 8px;&quot;&gt;Data Engineers&lt;/span&gt;&lt;/p&gt;&lt;/div&gt;" style="rounded=1;whiteSpace=wrap;html=1;autosize=0;" vertex="1" parent="1">
          <mxGeometry x="362.5" y="790" width="115" height="30" as="geometry" />
        </mxCell>
        <mxCell id="FZtYvgmV2bGIrAXsWXde-30" value="&lt;div style=&quot;line-height: 0%;&quot;&gt;&lt;p&gt;&lt;span style=&quot;font-size: 8px;&quot;&gt;Data Analysts&lt;/span&gt;&lt;/p&gt;&lt;p&gt;&lt;span style=&quot;font-size: 8px;&quot;&gt;Business Users&lt;/span&gt;&lt;/p&gt;&lt;/div&gt;" style="rounded=1;whiteSpace=wrap;html=1;autosize=0;" vertex="1" parent="1">
          <mxGeometry x="545" y="790" width="115" height="30" as="geometry" />
        </mxCell>
      </root>
    </mxGraphModel>
  </diagram>
</mxfile>
